<svg width="34" height="34" viewBox="0 0 34 34" fill="none" xmlns="http://www.w3.org/2000/svg">
<path d="M25.4999 15.5834V8.50004C25.4999 7.74859 25.2014 7.02792 24.6701 6.49657C24.1387 5.96522 23.4181 5.66671 22.6666 5.66671C21.9152 5.66671 21.1945 5.96522 20.6631 6.49657C20.1318 7.02792 19.8333 7.74859 19.8333 8.50004M19.8333 14.1667V5.66671C19.8333 4.91526 19.5348 4.19459 19.0034 3.66324C18.4721 3.13188 17.7514 2.83337 16.9999 2.83337C16.2485 2.83337 15.5278 3.13188 14.9965 3.66324C14.4651 4.19459 14.1666 4.91526 14.1666 5.66671V8.50004M14.1666 8.50004V14.875M14.1666 8.50004C14.1666 7.74859 13.8681 7.02792 13.3367 6.49657C12.8054 5.96522 12.0847 5.66671 11.3333 5.66671C10.5818 5.66671 9.86116 5.96522 9.32981 6.49657C8.79845 7.02792 8.49994 7.74859 8.49994 8.50004V19.8334M25.4999 11.3334C25.4999 10.5819 25.7985 9.86126 26.3298 9.32991C26.8612 8.79855 27.5818 8.50004 28.3333 8.50004C29.0847 8.50004 29.8054 8.79855 30.3367 9.32991C30.8681 9.86126 31.1666 10.5819 31.1666 11.3334V19.8334C31.1666 22.8392 29.9726 25.7218 27.8472 27.8473C25.7217 29.9727 22.8391 31.1667 19.8333 31.1667H16.9999C13.0333 31.1667 10.6249 29.9484 8.51411 27.8517L3.41411 22.7517C2.92668 22.2119 2.66552 21.5053 2.6847 20.7782C2.70388 20.0511 3.00193 19.3593 3.51713 18.8459C4.03233 18.3325 4.72524 18.0369 5.45237 18.0203C6.1795 18.0037 6.88517 18.2674 7.42328 18.7567L9.91661 21.25" stroke="#FCF9EA" stroke-width="2" stroke-linecap="round" stroke-linejoin="round"/>
</svg>
